Adsworth-72PT G XT.ufo
<glyph name="comma" format="2">
  <advance width="600"/>
  <unicode hex="002C"/>
  <outline>
    <contour>
      <point x="200" y="-128" type="line"/>
      <point x="227" y="69" type="line" smooth="yes"/>
      <point x="231" y="101"/>
      <point x="269" y="149"/>
      <point x="308" y="149" type="qcurve" smooth="yes"/>
      <point x="314" y="149.0" type="line" smooth="yes"/>
      <point x="346.0" y="149.0"/>
      <point x="383.0" y="103.0"/>
      <point x="383" y="74.0" type="qcurve" smooth="yes"/>
      <point x="383" y="67" type="line" smooth="yes"/>
      <point x="383" y="41"/>
      <point x="275" y="-79"/>
      <point x="250" y="-144" type="qcurve"/>
    </contour>
  </outline>
</glyph>
<glyph name="slash" format="2">
  <advance width="556"/>
  <unicode hex="002F"/>
  <outline>
    <contour>
      <point x="-88" y="0" type="line"/>
      <point x="552" y="1500" type="line"/>
      <point x="644" y="1500" type="line"/>
      <point x="4" y="0" type="line"/>
    </contour>
  </outline>
</glyph>
<glyph name="four" format="2">
  <advance width="985"/>
  <unicode hex="0034"/>
  <outline>
    <contour>
      <point x="679" y="0" type="line"/>
      <point x="679" y="1500" type="line"/>
      <point x="769" y="1497" type="line"/>
      <point x="769" y="2" type="line"/>
    </contour>
    <contour>
      <point x="985" y="505" type="line"/>
      <point x="985" y="418" type="line"/>
      <point x="16" y="418" type="line"/>
      <point x="0" y="520" type="line"/>
      <point x="680" y="1500" type="line"/>
      <point x="747" y="1452" type="line"/>
      <point x="88" y="505" type="line"/>
    </contour>
  </outline>
</glyph>
<glyph name="nine" format="2">
  <advance width="1046"/>
  <unicode hex="0039"/>
  <outline>
    <contour>
      <point x="895" y="994" type="qcurve"/>
      <point x="894" y="1006" type="line" smooth="yes"/>
      <point x="882" y="1169"/>
      <point x="669" y="1428"/>
      <point x="495" y="1428" type="qcurve" smooth="yes"/>
      <point x="479" y="1428" type="line" smooth="yes"/>
      <point x="316" y="1428"/>
      <point x="141" y="1212"/>
      <point x="141" y="1036" type="qcurve" smooth="yes"/>
      <point x="141" y="1015" type="line" smooth="yes"/>
      <point x="141" y="829"/>
      <point x="322" y="632"/>
      <point x="488" y="632" type="qcurve" smooth="yes"/>
      <point x="498" y="632" type="line" smooth="yes"/>
      <point x="661" y="632"/>
      <point x="880" y="821"/>
      <point x="899" y="967" type="qcurve" smooth="yes"/>
      <point x="901" y="982" type="line"/>
      <point x="949" y="981" type="line"/>
      <point x="948" y="969" type="line" smooth="yes"/>
      <point x="932" y="772"/>
      <point x="657" y="553"/>
      <point x="488" y="553" type="qcurve" smooth="yes"/>
      <point x="480" y="553" type="line" smooth="yes"/>
      <point x="278" y="553"/>
      <point x="46" y="805"/>
      <point x="46" y="1025" type="qcurve" smooth="yes"/>
      <point x="46" y="1038" type="line" smooth="yes"/>
      <point x="46" y="1244"/>
      <point x="297" y="1512"/>
      <point x="483" y="1512" type="qcurve" smooth="yes"/>
      <point x="495" y="1512" type="line" smooth="yes"/>
      <point x="713" y="1512"/>
      <point x="986" y="1188"/>
      <point x="986" y="906" type="qcurve" smooth="yes"/>
      <point x="986" y="884" type="line" smooth="yes"/>
      <point x="986.0" y="484.0"/>
      <point x="542" y="8"/>
      <point x="219" y="-1" type="qcurve" smooth="yes"/>
      <point x="183" y="-1" type="line"/>
      <point x="183" y="82" type="line"/>
      <point x="213" y="82" type="line" smooth="yes"/>
      <point x="518" y="82"/>
      <point x="923" y="562"/>
    </contour>
  </outline>
</glyph>
<glyph name="A" format="2">
  <advance width="1360"/>
  <unicode hex="0041"/>
  <outline>
    <contour>
      <point x="1085" y="483" type="line"/>
      <point x="265" y="483" type="line"/>
      <point x="265" y="567" type="line"/>
      <point x="1085" y="567" type="line"/>
    </contour>
    <contour>
      <point x="725" y="1500" type="line"/>
      <point x="1365" y="0" type="line"/>
      <point x="1264" y="0" type="line"/>
      <point x="681" y="1389" type="line"/>
      <point x="674" y="1389" type="line"/>
      <point x="88" y="0" type="line"/>
      <point x="-5" y="0" type="line"/>
      <point x="625" y="1500" type="line"/>
    </contour>
  </outline>
</glyph>
<glyph name="B" format="2">
  <advance width="1368"/>
  <unicode hex="0042"/>
  <outline>
    <contour>
      <point x="198" y="0" type="line"/>
      <point x="198" y="1500" type="line"/>
      <point x="289" y="1500" type="line"/>
      <point x="289" y="0" type="line"/>
    </contour>
    <contour>
      <point x="779" y="836" type="line"/>
      <point x="1051" y="836"/>
      <point x="1325" y="638"/>
      <point x="1325.0" y="438" type="qcurve" smooth="yes"/>
      <point x="1325.0" y="428" type="line" smooth="yes"/>
      <point x="1325" y="232"/>
      <point x="1073.0" y="0.0"/>
      <point x="813" y="0" type="qcurve" smooth="yes"/>
      <point x="246" y="0" type="line"/>
      <point x="246" y="82" type="line"/>
      <point x="839" y="82" type="line" smooth="yes"/>
      <point x="1021.0" y="82.0"/>
      <point x="1227" y="272"/>
      <point x="1227" y="425" type="qcurve" smooth="yes"/>
      <point x="1227" y="447" type="line" smooth="yes"/>
      <point x="1227" y="596"/>
      <point x="1021.0" y="755.0"/>
      <point x="859" y="755" type="qcurve" smooth="yes"/>
      <point x="246" y="755" type="line"/>
      <point x="246" y="836" type="line"/>
      <point x="784" y="836" type="line" smooth="yes"/>
      <point x="960.0" y="836.0"/>
      <point x="1112" y="997"/>
      <point x="1112.0" y="1132" type="qcurve" smooth="yes"/>
      <point x="1112.0" y="1155" type="line" smooth="yes"/>
      <point x="1112" y="1291"/>
      <point x="948.0" y="1418.0"/>
      <point x="794" y="1418" type="qcurve" smooth="yes"/>
      <point x="246" y="1418" type="line"/>
      <point x="246" y="1500" type="line"/>
      <point x="778" y="1500" type="line" smooth="yes"/>
      <point x="1005.0" y="1500.0"/>
      <point x="1212" y="1320"/>
      <point x="1212.0" y="1155" type="qcurve" smooth="yes"/>
      <point x="1212" y="1144" type="line" smooth="yes"/>
      <point x="1212.0" y="971"/>
      <point x="1000" y="755"/>
      <point x="751" y="755" type="qcurve"/>
    </contour>
  </outline>
</glyph>
<glyph name="C" format="2">
  <advance width="1498"/>
  <unicode hex="0043"/>
  <outline>
    <contour>
      <point x="804" y="56" type="line" smooth="yes"/>
      <point x="1082.0" y="56.0"/>
      <point x="1345.0" y="328"/>
      <point x="1345" y="523" type="qcurve" smooth="yes"/>
      <point x="1345" y="537" type="line"/>
      <point x="1436" y="537" type="line"/>
      <point x="1436" y="500" type="line" smooth="yes"/>
      <point x="1436.0" y="295.0"/>
      <point x="1114" y="-36"/>
      <point x="805" y="-36" type="qcurve" smooth="yes"/>
      <point x="794" y="-36" type="line" smooth="yes"/>
      <point x="477" y="-36"/>
      <point x="100" y="394"/>
      <point x="100" y="734" type="qcurve" smooth="yes"/>
      <point x="100" y="757" type="line" smooth="yes"/>
      <point x="100" y="1099"/>
      <point x="483" y="1528"/>
      <point x="778" y="1528" type="qcurve" smooth="yes"/>
      <point x="790" y="1528" type="line" smooth="yes"/>
      <point x="1103" y="1528"/>
      <point x="1427" y="1228"/>
      <point x="1437" y="990" type="qcurve" smooth="yes"/>
      <point x="1438" y="967" type="line"/>
      <point x="1340" y="967" type="line"/>
      <point x="1339" y="990" type="line" smooth="yes"/>
      <point x="1331" y="1185"/>
      <point x="1059" y="1434"/>
      <point x="802" y="1434" type="qcurve" smooth="yes"/>
      <point x="790" y="1434" type="line" smooth="yes"/>
      <point x="510" y="1434"/>
      <point x="194" y="1062"/>
      <point x="194" y="767" type="qcurve" smooth="yes"/>
      <point x="194" y="723" type="line" smooth="yes"/>
      <point x="194" y="441.0"/>
      <point x="500" y="56"/>
      <point x="793" y="56.0" type="qcurve" smooth="yes"/>
    </contour>
  </outline>
</glyph>
<glyph name="D" format="2">
  <advance width="1453"/>
  <unicode hex="0044"/>
  <outline>
    <contour>
      <point x="198" y="0" type="line"/>
      <point x="198" y="1500" type="line"/>
      <point x="288" y="1500" type="line"/>
      <point x="288" y="0" type="line"/>
    </contour>
    <contour>
      <point x="640" y="84" type="line" smooth="yes"/>
      <point x="911" y="84"/>
      <point x="1259" y="442"/>
      <point x="1259" y="728" type="qcurve" smooth="yes"/>
      <point x="1259" y="774" type="line" smooth="yes"/>
      <point x="1259" y="1060"/>
      <point x="908" y="1416"/>
      <point x="637" y="1416" type="qcurve" smooth="yes"/>
      <point x="244" y="1416" type="line"/>
      <point x="244" y="1500" type="line"/>
      <point x="605" y="1500" type="line" smooth="yes"/>
      <point x="939" y="1500"/>
      <point x="1353" y="1107"/>
      <point x="1353" y="759" type="qcurve" smooth="yes"/>
      <point x="1353" y="740" type="line" smooth="yes"/>
      <point x="1353" y="392"/>
      <point x="935" y="0"/>
      <point x="626" y="0" type="qcurve" smooth="yes"/>
      <point x="244" y="0" type="line"/>
      <point x="244" y="84" type="line"/>
    </contour>
  </outline>
</glyph>
<glyph name="E" format="2">
  <advance width="1186"/>
  <unicode hex="0045"/>
  <outline>
    <contour>
      <point x="198" y="0" type="line"/>
      <point x="198" y="1500" type="line"/>
      <point x="288" y="1500" type="line"/>
      <point x="288" y="0" type="line"/>
    </contour>
    <contour>
      <point x="1058" y="752" type="line"/>
      <point x="239" y="752" type="line"/>
      <point x="239" y="836" type="line"/>
      <point x="1058" y="836" type="line"/>
    </contour>
    <contour>
      <point x="1118" y="1416" type="line"/>
      <point x="239" y="1416" type="line"/>
      <point x="239" y="1500" type="line"/>
      <point x="1118" y="1500" type="line"/>
    </contour>
    <contour>
      <point x="1118" y="0" type="line"/>
      <point x="239" y="0" type="line"/>
      <point x="239" y="84" type="line"/>
      <point x="1118" y="84" type="line"/>
    </contour>
  </outline>
</glyph>
<glyph name="F" format="2">
  <advance width="1116"/>
  <unicode hex="0046"/>
  <outline>
    <contour>
      <point x="198" y="0" type="line"/>
      <point x="198" y="1500" type="line"/>
      <point x="288" y="1500" type="line"/>
      <point x="288" y="0" type="line"/>
    </contour>
    <contour>
      <point x="998" y="738" type="line"/>
      <point x="238" y="738" type="line"/>
      <point x="238" y="822" type="line"/>
      <point x="998" y="822" type="line"/>
    </contour>
    <contour>
      <point x="1078" y="1416" type="line"/>
      <point x="238" y="1416" type="line"/>
      <point x="238" y="1500" type="line"/>
      <point x="1078" y="1500" type="line"/>
    </contour>
  </outline>
</glyph>
<glyph name="G" format="2">
  <advance width="1490"/>
  <unicode hex="0047"/>
  <outline>
    <contour>
      <point x="795" y="71.0" type="line" smooth="yes"/>
      <point x="1062.0" y="71.0"/>
      <point x="1292" y="312"/>
      <point x="1292" y="523" type="qcurve" smooth="yes"/>
      <point x="1292" y="631.0" type="line"/>
      <point x="872" y="631.0" type="line"/>
      <point x="872" y="715.0" type="line"/>
      <point x="1382" y="715.0" type="line"/>
      <point x="1378.0" y="522" type="line" smooth="yes"/>
      <point x="1373" y="274"/>
      <point x="1077" y="-17"/>
      <point x="798" y="-17.0" type="qcurve" smooth="yes"/>
      <point x="786" y="-17.0" type="line" smooth="yes"/>
      <point x="485" y="-17"/>
      <point x="96" y="375.0"/>
      <point x="96" y="743.0" type="qcurve" smooth="yes"/>
      <point x="96" y="755.0" type="line" smooth="yes"/>
      <point x="96" y="1108"/>
      <point x="481.0" y="1513.0"/>
      <point x="746" y="1513.0" type="qcurve" smooth="yes"/>
      <point x="758" y="1513.0" type="line" smooth="yes"/>
      <point x="1022.0" y="1513.0"/>
      <point x="1328" y="1257"/>
      <point x="1342" y="1036.0" type="qcurve" smooth="yes"/>
      <point x="1344" y="1007.0" type="line"/>
      <point x="1251" y="1007.0" type="line"/>
      <point x="1251" y="1027.0" type="line" smooth="yes"/>
      <point x="1251" y="1196"/>
      <point x="992.0" y="1419.0"/>
      <point x="766" y="1419.0" type="qcurve" smooth="yes"/>
      <point x="754" y="1419.0" type="line" smooth="yes"/>
      <point x="513.0" y="1419.0"/>
      <point x="194" y="1052.0"/>
      <point x="194" y="769.0" type="qcurve" smooth="yes"/>
      <point x="194" y="727.0" type="line" smooth="yes"/>
      <point x="194" y="445.0"/>
      <point x="492" y="71"/>
      <point x="787" y="71.0" type="qcurve" smooth="yes"/>
    </contour>
  </outline>
</glyph>
<glyph name="H" format="2">
  <advance width="1506"/>
  <unicode hex="0048"/>
  <outline>
    <contour>
      <point x="198" y="0" type="line"/>
      <point x="198" y="1500" type="line"/>
      <point x="288" y="1500" type="line"/>
      <point x="288" y="0" type="line"/>
    </contour>
    <contour>
      <point x="1218" y="0" type="line"/>
      <point x="1218" y="1500" type="line"/>
      <point x="1308" y="1500" type="line"/>
      <point x="1308" y="0" type="line"/>
    </contour>
    <contour>
      <point x="1268" y="754" type="line"/>
      <point x="238" y="754" type="line"/>
      <point x="238" y="834" type="line"/>
      <point x="1268" y="834" type="line"/>
    </contour>
  </outline>
</glyph>
<glyph name="I" format="2">
  <advance width="734"/>
  <unicode hex="0049"/>
  <outline>
    <contour>
      <point x="322" y="0" type="line"/>
      <point x="322" y="1500" type="line"/>
      <point x="412" y="1500" type="line"/>
      <point x="412" y="0" type="line"/>
    </contour>
    <contour>
      <point x="587" y="0" type="line"/>
      <point x="147" y="0" type="line"/>
      <point x="147" y="84" type="line"/>
      <point x="587" y="84" type="line"/>
    </contour>
    <contour>
      <point x="587" y="1416" type="line"/>
      <point x="147" y="1416" type="line"/>
      <point x="147" y="1500" type="line"/>
      <point x="587" y="1500" type="line"/>
    </contour>
  </outline>
</glyph>
<glyph name="J" format="2">
  <advance width="1273"/>
  <unicode hex="004A"/>
  <outline>
    <contour>
      <point x="1082.0" y="564.0" type="line" smooth="yes"/>
      <point x="1082.0" y="261.0"/>
      <point x="813" y="-38"/>
      <point x="565" y="-38" type="qcurve" smooth="yes"/>
      <point x="558" y="-38" type="line" smooth="yes"/>
      <point x="314" y="-38"/>
      <point x="41" y="217.0"/>
      <point x="41" y="447" type="qcurve" smooth="yes"/>
      <point x="41" y="512" type="line"/>
      <point x="131" y="512" type="line"/>
      <point x="131" y="458" type="line" smooth="yes"/>
      <point x="131" y="256.0"/>
      <point x="353.0" y="46"/>
      <point x="550" y="46" type="qcurve" smooth="yes"/>
      <point x="573" y="46" type="line" smooth="yes"/>
      <point x="775" y="46"/>
      <point x="992.0" y="295.0"/>
      <point x="992.0" y="566.0" type="qcurve" smooth="yes"/>
      <point x="992" y="1500" type="line"/>
      <point x="1082" y="1500" type="line"/>
    </contour>
  </outline>
</glyph>
<glyph name="K" format="2">
  <advance width="1466"/>
  <unicode hex="004B"/>
  <outline>
    <contour>
      <point x="198" y="0" type="line"/>
      <point x="198" y="1500" type="line"/>
      <point x="288" y="1500" type="line"/>
      <point x="288" y="0" type="line"/>
    </contour>
    <contour>
      <point x="246" y="616" type="line"/>
      <point x="624" y="940" type="line"/>
      <point x="1276" y="1500" type="line"/>
      <point x="1406" y="1500" type="line"/>
      <point x="694" y="896" type="line"/>
      <point x="662" y="868" type="line"/>
      <point x="246" y="516" type="line"/>
    </contour>
    <contour>
      <point x="623" y="885" type="line"/>
      <point x="684" y="943" type="line"/>
      <point x="1503" y="0" type="line"/>
      <point x="1386" y="0" type="line"/>
    </contour>
  </outline>
</glyph>
<glyph name="L" format="2">
  <advance width="1168"/>
  <unicode hex="004C"/>
  <outline>
    <contour>
      <point x="198" y="0" type="line"/>
      <point x="198" y="1500" type="line"/>
      <point x="288" y="1500" type="line"/>
      <point x="288" y="0" type="line"/>
    </contour>
    <contour>
      <point x="1150" y="0" type="line"/>
      <point x="248" y="0" type="line"/>
      <point x="248" y="84" type="line"/>
      <point x="1150" y="84" type="line"/>
    </contour>
  </outline>
</glyph>
<glyph name="M" format="2">
  <advance width="1951"/>
  <unicode hex="004D"/>
  <outline>
    <contour>
      <point x="198" y="0" type="line"/>
      <point x="198" y="1500" type="line"/>
      <point x="311" y="1500" type="line"/>
      <point x="958" y="118" type="line"/>
      <point x="963" y="118" type="line"/>
      <point x="1635" y="1500" type="line"/>
      <point x="1753" y="1500" type="line"/>
      <point x="1753" y="0" type="line"/>
      <point x="1666" y="0" type="line"/>
      <point x="1666" y="1368" type="line"/>
      <point x="1004" y="0" type="line"/>
      <point x="914" y="0" type="line"/>
      <point x="284" y="1358" type="line"/>
      <point x="284" y="0" type="line"/>
    </contour>
  </outline>
</glyph>
<glyph name="N" format="2">
  <advance width="1340"/>
  <unicode hex="004E"/>
  <outline>
    <contour>
      <point x="176" y="0" type="line"/>
      <point x="176" y="1500" type="line"/>
      <point x="254" y="1500" type="line"/>
      <point x="1080" y="168" type="line"/>
      <point x="1080" y="1500" type="line"/>
      <point x="1164" y="1500" type="line"/>
      <point x="1164" y="0" type="line"/>
      <point x="1076" y="0" type="line"/>
      <point x="1076" y="3" type="line"/>
      <point x="260" y="1340" type="line"/>
      <point x="260" y="0" type="line"/>
    </contour>
  </outline>
</glyph>
<glyph name="O" format="2">
  <advance width="1602"/>
  <unicode hex="004F"/>
  <outline>
    <contour>
      <point x="799" y="-18.0" type="line" smooth="yes"/>
      <point x="485.0" y="-18"/>
      <point x="96" y="404.0"/>
      <point x="96" y="734" type="qcurve" smooth="yes"/>
      <point x="96" y="753" type="line" smooth="yes"/>
      <point x="96" y="1091.0"/>
      <point x="487.0" y="1513.0"/>
      <point x="794" y="1513.0" type="qcurve" smooth="yes"/>
      <point x="803" y="1513.0" type="line" smooth="yes"/>
      <point x="1126" y="1513.0"/>
      <point x="1506.0" y="1091.0"/>
      <point x="1506" y="772.0" type="qcurve" smooth="yes"/>
      <point x="1506" y="722.0" type="line" smooth="yes"/>
      <point x="1506.0" y="404.0"/>
      <point x="1129.0" y="-18.0"/>
      <point x="808" y="-18.0" type="qcurve" smooth="yes"/>
    </contour>
    <contour>
      <point x="805.0" y="74" type="line" smooth="yes"/>
      <point x="1097" y="74"/>
      <point x="1413.0" y="455.0"/>
      <point x="1413.0" y="732" type="qcurve" smooth="yes"/>
      <point x="1413.0" y="756" type="line" smooth="yes"/>
      <point x="1413.0" y="1036.0"/>
      <point x="1102" y="1421"/>
      <point x="805.0" y="1421.0" type="qcurve" smooth="yes"/>
      <point x="793.0" y="1421.0" type="line" smooth="yes"/>
      <point x="511" y="1421"/>
      <point x="189" y="1056.0"/>
      <point x="189.0" y="769" type="qcurve" smooth="yes"/>
      <point x="189.0" y="724" type="line" smooth="yes"/>
      <point x="189" y="455.0"/>
      <point x="497" y="74"/>
      <point x="793.0" y="74" type="qcurve" smooth="yes"/>
    </contour>
  </outline>
</glyph>
<glyph name="P" format="2">
  <advance width="1422"/>
  <unicode hex="0050"/>
  <outline>
    <contour>
      <point x="198" y="0" type="line"/>
      <point x="198" y="1500" type="line"/>
      <point x="287" y="1500" type="line"/>
      <point x="287" y="0" type="line"/>
    </contour>
    <contour>
      <point x="871" y="591" type="qcurve" smooth="yes"/>
      <point x="240" y="591" type="line"/>
      <point x="240" y="675" type="line"/>
      <point x="887" y="675" type="line" smooth="yes"/>
      <point x="1067.0" y="675.0"/>
      <point x="1262" y="852"/>
      <point x="1262.0" y="1026" type="qcurve" smooth="yes"/>
      <point x="1262.0" y="1077" type="line" smooth="yes"/>
      <point x="1262" y="1249"/>
      <point x="1059.0" y="1416.0"/>
      <point x="901" y="1416" type="qcurve" smooth="yes"/>
      <point x="240" y="1416" type="line"/>
      <point x="240" y="1500" type="line"/>
      <point x="895" y="1500" type="line" smooth="yes"/>
      <point x="1107.0" y="1500.0"/>
      <point x="1355" y="1287"/>
      <point x="1355.0" y="1058" type="qcurve" smooth="yes"/>
      <point x="1355.0" y="1040" type="line" smooth="yes"/>
      <point x="1355" y="820"/>
      <point x="1112.0" y="591.0"/>
    </contour>
  </outline>
</glyph>
<glyph name="Q" format="2">
  <advance width="1602"/>
  <unicode hex="0051"/>
  <outline>
    <contour>
      <point x="804" y="30" type="line"/>
      <point x="1526" y="-37" type="line"/>
      <point x="1526" y="-132" type="line"/>
      <point x="804" y="-20" type="line"/>
    </contour>
    <contour>
      <point x="799" y="-36.0" type="line" smooth="yes"/>
      <point x="485" y="-36"/>
      <point x="100" y="404"/>
      <point x="100" y="734" type="qcurve" smooth="yes"/>
      <point x="100" y="753" type="line" smooth="yes"/>
      <point x="100" y="1091"/>
      <point x="487" y="1527"/>
      <point x="794" y="1527.0" type="qcurve" smooth="yes"/>
      <point x="803" y="1527.0" type="line" smooth="yes"/>
      <point x="1126" y="1527"/>
      <point x="1502" y="1091"/>
      <point x="1502" y="772.0" type="qcurve" smooth="yes"/>
      <point x="1502" y="722.0" type="line" smooth="yes"/>
      <point x="1502" y="404"/>
      <point x="1129" y="-36"/>
      <point x="808" y="-36.0" type="qcurve" smooth="yes"/>
    </contour>
    <contour>
      <point x="805.0" y="56" type="line" smooth="yes"/>
      <point x="1097" y="56"/>
      <point x="1409" y="455"/>
      <point x="1409.0" y="732" type="qcurve" smooth="yes"/>
      <point x="1409.0" y="756" type="line" smooth="yes"/>
      <point x="1409" y="1036"/>
      <point x="1102" y="1435"/>
      <point x="805.0" y="1435.0" type="qcurve" smooth="yes"/>
      <point x="793.0" y="1435.0" type="line" smooth="yes"/>
      <point x="511" y="1435"/>
      <point x="193" y="1056"/>
      <point x="193.0" y="769" type="qcurve" smooth="yes"/>
      <point x="193.0" y="724" type="line" smooth="yes"/>
      <point x="193" y="455"/>
      <point x="497" y="56"/>
      <point x="793.0" y="56" type="qcurve" smooth="yes"/>
    </contour>
  </outline>
</glyph>
<glyph name="R" format="2">
  <advance width="1496"/>
  <unicode hex="0052"/>
  <outline>
    <contour>
      <point x="198" y="0" type="line"/>
      <point x="198" y="1500" type="line"/>
      <point x="288" y="1500" type="line"/>
      <point x="288" y="0" type="line"/>
    </contour>
    <contour>
      <point x="867" y="673" type="qcurve" smooth="yes"/>
      <point x="248" y="673" type="line"/>
      <point x="248" y="757" type="line"/>
      <point x="841" y="757" type="line" smooth="yes"/>
      <point x="1049.0" y="757.0"/>
      <point x="1239" y="930"/>
      <point x="1239.0" y="1105" type="qcurve" smooth="yes"/>
      <point x="1239" y="1119" type="line" smooth="yes"/>
      <point x="1239" y="1264"/>
      <point x="1038.0" y="1416.0"/>
      <point x="861" y="1416" type="qcurve" smooth="yes"/>
      <point x="248" y="1416" type="line"/>
      <point x="248" y="1500" type="line"/>
      <point x="888" y="1500" type="line" smooth="yes"/>
      <point x="1075.0" y="1500.0"/>
      <point x="1335" y="1308"/>
      <point x="1335" y="1118" type="qcurve" smooth="yes"/>
      <point x="1335" y="1103" type="line" smooth="yes"/>
      <point x="1335" y="905"/>
      <point x="1079.0" y="673.0"/>
    </contour>
    <contour>
      <point x="1019" y="744" type="line"/>
      <point x="1494" y="0" type="line"/>
      <point x="1393" y="0" type="line"/>
      <point x="949" y="701" type="line"/>
    </contour>
  </outline>
</glyph>
<glyph name="S" format="2">
  <advance width="1316"/>
  <unicode hex="0053"/>
  <outline>
    <contour>
      <point x="1164.0" y="426" type="line" smooth="yes"/>
      <point x="1164.0" y="570.0"/>
      <point x="901" y="726"/>
      <point x="661" y="765" type="qcurve" smooth="yes"/>
      <point x="415" y="805"/>
      <point x="116" y="984.0"/>
      <point x="116" y="1163" type="qcurve" smooth="yes"/>
      <point x="116" y="1173" type="line" smooth="yes"/>
      <point x="116" y="1343"/>
      <point x="408.0" y="1527.0"/>
      <point x="653" y="1527" type="qcurve" smooth="yes"/>
      <point x="664" y="1527" type="line" smooth="yes"/>
      <point x="915.0" y="1527.0"/>
      <point x="1208.0" y="1328"/>
      <point x="1208" y="1154" type="qcurve" smooth="yes"/>
      <point x="1208" y="1094" type="line"/>
      <point x="1116" y="1094.0" type="line"/>
      <point x="1116.0" y="1117" type="line" smooth="yes"/>
      <point x="1116" y="1295"/>
      <point x="857.0" y="1435.0"/>
      <point x="664.0" y="1435" type="qcurve" smooth="yes"/>
      <point x="652.0" y="1435" type="line" smooth="yes"/>
      <point x="457.0" y="1435.0"/>
      <point x="209" y="1312"/>
      <point x="209.0" y="1178" type="qcurve" smooth="yes"/>
      <point x="209.0" y="1163" type="line" smooth="yes"/>
      <point x="209" y="1020.0"/>
      <point x="462" y="890"/>
      <point x="700" y="850" type="qcurve" smooth="yes"/>
      <point x="950" y="808"/>
      <point x="1257.0" y="613.0"/>
      <point x="1257.0" y="426" type="qcurve" smooth="yes"/>
      <point x="1257.0" y="410" type="line" smooth="yes"/>
      <point x="1257.0" y="234.0"/>
      <point x="959.0" y="-36.0"/>
      <point x="692" y="-36.0" type="qcurve" smooth="yes"/>
      <point x="688" y="-36.0" type="line" smooth="yes"/>
      <point x="405.0" y="-36"/>
      <point x="91" y="195"/>
      <point x="88" y="374" type="qcurve" smooth="yes"/>
      <point x="88" y="444.0" type="line"/>
      <point x="180" y="444.0" type="line"/>
      <point x="180" y="408" type="line" smooth="yes"/>
      <point x="180" y="231"/>
      <point x="451.0" y="56"/>
      <point x="682.0" y="56" type="qcurve" smooth="yes"/>
      <point x="689.0" y="56" type="line" smooth="yes"/>
      <point x="923.0" y="56.0"/>
      <point x="1164.0" y="255.0"/>
      <point x="1164.0" y="414" type="qcurve" smooth="yes"/>
    </contour>
  </outline>
</glyph>
<glyph name="T" format="2">
  <advance width="1310"/>
  <unicode hex="0054"/>
  <outline>
    <contour>
      <point x="610" y="0" type="line"/>
      <point x="610" y="1460" type="line"/>
      <point x="700" y="1460" type="line"/>
      <point x="700" y="0" type="line"/>
    </contour>
    <contour>
      <point x="1292" y="1416" type="line"/>
      <point x="8" y="1416" type="line"/>
      <point x="8" y="1500" type="line"/>
      <point x="1292" y="1500" type="line"/>
    </contour>
  </outline>
</glyph>
<glyph name="U" format="2">
  <advance width="1402"/>
  <unicode hex="0055"/>
  <outline>
    <contour>
      <point x="162" y="1500" type="line"/>
      <point x="252" y="1500" type="line"/>
      <point x="252" y="542" type="line" smooth="yes"/>
      <point x="252.0" y="329.0"/>
      <point x="491" y="54"/>
      <point x="691" y="54" type="qcurve" smooth="yes"/>
      <point x="699" y="54" type="line" smooth="yes"/>
      <point x="905" y="54"/>
      <point x="1152" y="318"/>
      <point x="1152" y="534" type="qcurve" smooth="yes"/>
      <point x="1152" y="1500" type="line"/>
      <point x="1240" y="1500" type="line"/>
      <point x="1240" y="528" type="line" smooth="yes"/>
      <point x="1240" y="258"/>
      <point x="911" y="-37"/>
      <point x="702" y="-37" type="qcurve" smooth="yes"/>
      <point x="694" y="-37" type="line" smooth="yes"/>
      <point x="465" y="-37"/>
      <point x="162" y="266.0"/>
      <point x="162" y="554" type="qcurve" smooth="yes"/>
    </contour>
  </outline>
</glyph>
<glyph name="V" format="2">
  <advance width="1410"/>
  <unicode hex="0056"/>
  <outline>
    <contour>
      <point x="658" y="0" type="line"/>
      <point x="17" y="1500" type="line"/>
      <point x="115" y="1500" type="line"/>
      <point x="700" y="121" type="line"/>
      <point x="1291" y="1500" type="line"/>
      <point x="1385" y="1500" type="line"/>
      <point x="738" y="0" type="line"/>
    </contour>
  </outline>
</glyph>
<glyph name="W" format="2">
  <advance width="2050"/>
  <unicode hex="0057"/>
  <outline>
    <contour>
      <point x="455" y="0" type="line"/>
      <point x="-40" y="1500" type="line"/>
      <point x="47" y="1500" type="line"/>
      <point x="508" y="80" type="line"/>
      <point x="963" y="1500" type="line"/>
      <point x="1065" y="1500" type="line"/>
      <point x="1530" y="80" type="line"/>
      <point x="1998" y="1500" type="line"/>
      <point x="2080" y="1500" type="line"/>
      <point x="1585" y="0" type="line"/>
      <point x="1475" y="0" type="line"/>
      <point x="1017" y="1399" type="line"/>
      <point x="1011" y="1399" type="line"/>
      <point x="565" y="0" type="line"/>
    </contour>
  </outline>
</glyph>
<glyph name="X" format="2">
  <advance width="1420"/>
  <unicode hex="0058"/>
  <outline>
    <contour>
      <point x="40" y="0" type="line"/>
      <point x="679" y="790" type="line"/>
      <point x="701" y="817" type="line"/>
      <point x="1253" y="1500" type="line"/>
      <point x="1360" y="1500" type="line"/>
      <point x="754" y="751" type="line"/>
      <point x="730" y="721" type="line"/>
      <point x="147" y="0" type="line"/>
    </contour>
    <contour>
      <point x="1269" y="0" type="line"/>
      <point x="700" y="720" type="line"/>
      <point x="682" y="742" type="line"/>
      <point x="81" y="1500" type="line"/>
      <point x="193" y="1500" type="line"/>
      <point x="736" y="814" type="line"/>
      <point x="751" y="794" type="line"/>
      <point x="1380" y="0" type="line"/>
    </contour>
  </outline>
</glyph>
<glyph name="Y" format="2">
  <advance width="1392"/>
  <unicode hex="0059"/>
  <outline>
    <contour>
      <point x="651" y="0" type="line"/>
      <point x="651" y="540" type="line"/>
      <point x="741" y="540" type="line"/>
      <point x="741" y="0" type="line"/>
    </contour>
    <contour>
      <point x="657" y="470" type="line"/>
      <point x="72" y="1500" type="line"/>
      <point x="172" y="1500" type="line"/>
      <point x="697" y="566" type="line"/>
      <point x="1222" y="1500" type="line"/>
      <point x="1321" y="1500" type="line"/>
      <point x="735" y="470" type="line"/>
    </contour>
  </outline>
</glyph>
<glyph name="Z" format="2">
  <advance width="1322"/>
  <unicode hex="005A"/>
  <outline>
    <contour>
      <point x="1260" y="0" type="line"/>
      <point x="64" y="0" type="line"/>
      <point x="64" y="79" type="line"/>
      <point x="1138" y="1416" type="line"/>
      <point x="54" y="1416" type="line"/>
      <point x="54" y="1500" type="line"/>
      <point x="1240" y="1500" type="line"/>
      <point x="1240" y="1416" type="line"/>
      <point x="173" y="84" type="line"/>
      <point x="1260" y="84" type="line"/>
    </contour>
  </outline>
</glyph>
<glyph name="b" format="2">
  <advance width="1105"/>
  <unicode hex="0062"/>
  <outline>
    <contour>
      <point x="142" y="0" type="line"/>
      <point x="142" y="1500" type="line"/>
      <point x="228" y="1500" type="line"/>
      <point x="228" y="0" type="line"/>
    </contour>
    <contour>
      <point x="169.0" y="508" type="line" smooth="yes"/>
      <point x="169" y="770.0"/>
      <point x="413.0" y="1012.0"/>
      <point x="587" y="1012" type="qcurve" smooth="yes"/>
      <point x="595" y="1012" type="line" smooth="yes"/>
      <point x="805.0" y="1012.0"/>
      <point x="1049.0" y="719.0"/>
      <point x="1049" y="492" type="qcurve" smooth="yes"/>
      <point x="1049" y="489" type="line" smooth="yes"/>
      <point x="1049.0" y="268"/>
      <point x="803.0" y="-27.0"/>
      <point x="599" y="-27" type="qcurve" smooth="yes"/>
      <point x="591" y="-27" type="line" smooth="yes"/>
      <point x="413.0" y="-27"/>
      <point x="169" y="204.0"/>
      <point x="169" y="493" type="qcurve" smooth="yes"/>
    </contour>
    <contour>
      <point x="219" y="515" type="qcurve" smooth="yes"/>
      <point x="219" y="486" type="line" smooth="yes"/>
      <point x="219" y="270"/>
      <point x="425.0" y="54"/>
      <point x="577" y="54" type="qcurve" smooth="yes"/>
      <point x="585" y="54" type="line" smooth="yes"/>
      <point x="751.0" y="54.0"/>
      <point x="959" y="281"/>
      <point x="959" y="486" type="qcurve" smooth="yes"/>
      <point x="959" y="495" type="line" smooth="yes"/>
      <point x="959.0" y="703.0"/>
      <point x="761" y="930"/>
      <point x="595" y="930" type="qcurve" smooth="yes"/>
      <point x="587" y="930" type="line" smooth="yes"/>
      <point x="446" y="930"/>
      <point x="219" y="739"/>
    </contour>
  </outline>
</glyph>
<glyph name="g" format="2">
  <advance width="1108"/>
  <unicode hex="0067"/>
  <outline>
    <contour>
      <point x="936" y="492" type="qcurve" smooth="yes"/>
      <point x="936" y="477" type="line" smooth="yes"/>
      <point x="936.0" y="215.0"/>
      <point x="692" y="-17"/>
      <point x="518" y="-17" type="qcurve" smooth="yes"/>
      <point x="510" y="-17" type="line" smooth="yes"/>
      <point x="300" y="-17"/>
      <point x="56" y="271.0"/>
      <point x="56" y="498" type="qcurve" smooth="yes"/>
      <point x="56" y="501" type="line" smooth="yes"/>
      <point x="56" y="722"/>
      <point x="302" y="1012"/>
      <point x="506" y="1012" type="qcurve" smooth="yes"/>
      <point x="514" y="1012" type="line" smooth="yes"/>
      <point x="692" y="1012"/>
      <point x="936" y="781"/>
    </contour>
    <contour>
      <point x="886" y="499" type="line" smooth="yes"/>
      <point x="886" y="715"/>
      <point x="680" y="931"/>
      <point x="528" y="931" type="qcurve" smooth="yes"/>
      <point x="520" y="931" type="line" smooth="yes"/>
      <point x="354" y="931"/>
      <point x="146" y="709"/>
      <point x="146" y="504" type="qcurve" smooth="yes"/>
      <point x="146" y="495" type="line" smooth="yes"/>
      <point x="146" y="287.0"/>
      <point x="344" y="65"/>
      <point x="510" y="65" type="qcurve" smooth="yes"/>
      <point x="518" y="65" type="line" smooth="yes"/>
      <point x="659" y="65"/>
      <point x="886.0" y="246.0"/>
      <point x="886" y="470" type="qcurve" smooth="yes"/>
    </contour>
    <contour>
      <point x="386" y="-422" type="line"/>
      <point x="366" y="-418"/>
      <point x="460" y="-432"/>
      <point x="494" y="-432" type="qcurve" smooth="yes"/>
      <point x="666.0" y="-432.0"/>
      <point x="886.0" y="-234.0"/>
      <point x="886" y="-6" type="qcurve" smooth="yes"/>
      <point x="886" y="1000" type="line"/>
      <point x="966" y="1000" type="line"/>
      <point x="966" y="-47" type="line" smooth="yes"/>
      <point x="966.0" y="-240.0"/>
      <point x="716" y="-503"/>
      <point x="482" y="-503" type="qcurve" smooth="yes"/>
      <point x="454" y="-503"/>
      <point x="384" y="-494"/>
      <point x="390" y="-496" type="qcurve"/>
    </contour>
  </outline>
</glyph>
<glyph name="k" format="2">
  <advance width="903"/>
  <unicode hex="006B"/>
  <outline>
    <contour>
      <point x="142" y="0" type="line"/>
      <point x="142" y="1500" type="line"/>
      <point x="228" y="1500" type="line"/>
      <point x="228" y="0" type="line"/>
    </contour>
    <contour>
      <point x="444" y="533" type="line"/>
      <point x="228" y="318" type="line"/>
      <point x="228" y="413" type="line"/>
      <point x="412" y="597" type="line"/>
      <point x="770" y="980" type="line"/>
      <point x="866" y="980" type="line"/>
      <point x="473" y="558" type="line"/>
    </contour>
    <contour>
      <point x="464" y="607" type="line"/>
      <point x="906" y="0" type="line"/>
      <point x="807" y="0" type="line"/>
      <point x="408" y="556" type="line"/>
    </contour>
  </outline>
</glyph>
<glyph name="r" format="2">
  <advance width="641"/>
  <unicode hex="0072"/>
  <outline>
    <contour>
      <point x="142" y="0" type="line"/>
      <point x="142" y="979" type="line"/>
      <point x="232" y="979" type="line"/>
      <point x="232" y="0" type="line"/>
    </contour>
    <contour>
      <point x="172" y="782" type="line"/>
      <point x="244" y="877"/>
      <point x="443" y="1009"/>
      <point x="568" y="1009" type="qcurve" smooth="yes"/>
      <point x="581" y="1009"/>
      <point x="607" y="1008"/>
      <point x="619" y="1007" type="qcurve"/>
      <point x="619" y="920" type="line"/>
      <point x="608" y="921"/>
      <point x="582" y="923"/>
      <point x="568" y="923" type="qcurve" smooth="yes"/>
      <point x="436" y="923"/>
      <point x="272" y="806"/>
      <point x="194" y="718" type="qcurve"/>
    </contour>
  </outline>
</glyph>
<glyph name="t" format="2">
  <advance width="581"/>
  <unicode hex="0074"/>
  <outline>
    <contour>
      <point x="540" y="907" type="line"/>
      <point x="26" y="907" type="line"/>
      <point x="26" y="980" type="line"/>
      <point x="540" y="980" type="line"/>
    </contour>
    <contour>
      <point x="254.0" y="238" type="line" smooth="yes"/>
      <point x="254.0" y="143.0"/>
      <point x="327.0" y="67.0"/>
      <point x="401.0" y="67" type="qcurve" smooth="yes"/>
      <point x="457" y="67"/>
      <point x="531.0" y="85"/>
      <point x="578.0" y="109" type="qcurve"/>
      <point x="587.0" y="27" type="line"/>
      <point x="553.0" y="10"/>
      <point x="450.0" y="-16"/>
      <point x="389" y="-16" type="qcurve"/>
      <point x="277.0" y="-16"/>
      <point x="167.0" y="115.0"/>
      <point x="167.0" y="272" type="qcurve" smooth="yes"/>
      <point x="167" y="1233" type="line"/>
      <point x="254" y="1233" type="line"/>
    </contour>
  </outline>
</glyph>
<glyph name="u" format="2">
  <advance width="1079"/>
  <unicode hex="0075"/>
  <outline>
    <contour>
      <point x="937.0" y="980.0" type="line"/>
      <point x="937.0" y="0.0" type="line"/>
      <point x="851.0" y="0.0" type="line"/>
      <point x="851.0" y="980.0" type="line"/>
    </contour>
    <contour>
      <point x="886.0" y="191.0" type="line"/>
      <point x="855.0" y="116.0"/>
      <point x="636.0" y="-32.0"/>
      <point x="490.0" y="-32.0" type="qcurve" smooth="yes"/>
      <point x="335.0" y="-32.0"/>
      <point x="137.0" y="146.0"/>
      <point x="137.0" y="325.0" type="qcurve" smooth="yes"/>
      <point x="137.0" y="980.0" type="line"/>
      <point x="223.0" y="980.0" type="line"/>
      <point x="223.0" y="344.0" type="line" smooth="yes"/>
      <point x="223.0" y="186.0"/>
      <point x="365.0" y="50.0"/>
      <point x="489.0" y="50.0" type="qcurve" smooth="yes"/>
      <point x="616.0" y="50.0"/>
      <point x="812.0" y="162.0"/>
      <point x="882.0" y="276.0" type="qcurve"/>
    </contour>
  </outline>
</glyph>
<glyph name="w" format="2">
  <advance width="1308"/>
  <unicode hex="0077"/>
  <outline>
    <contour>
      <point x="309" y="0" type="line"/>
      <point x="0" y="980" type="line"/>
      <point x="94" y="980" type="line"/>
      <point x="364" y="105" type="line"/>
      <point x="610" y="980" type="line"/>
      <point x="706" y="980" type="line"/>
      <point x="946" y="103" type="line"/>
      <point x="1217" y="980" type="line"/>
      <point x="1307" y="980" type="line"/>
      <point x="991" y="0" type="line"/>
      <point x="891" y="0" type="line"/>
      <point x="658" y="862" type="line"/>
      <point x="409" y="0" type="line"/>
    </contour>
  </outline>
</glyph>
<glyph name="y" format="2">
  <advance width="866"/>
  <unicode hex="0079"/>
  <outline>
    <contour>
      <point x="389" y="4" type="qcurve"/>
      <point x="-1" y="980" type="line"/>
      <point x="91" y="980" type="line"/>
      <point x="439" y="102" type="line"/>
      <point x="785" y="980" type="line"/>
      <point x="876" y="980" type="line"/>
      <point x="479" y="1" type="line" smooth="yes"/>
      <point x="406" y="-178"/>
      <point x="195" y="-500"/>
      <point x="63" y="-500" type="qcurve" smooth="yes"/>
      <point x="-6" y="-500"/>
      <point x="-71" y="-491"/>
      <point x="-94" y="-484" type="qcurve"/>
      <point x="-82" y="-392" type="line"/>
      <point x="-61" y="-397"/>
      <point x="10" y="-410"/>
      <point x="36" y="-410" type="qcurve" smooth="yes"/>
      <point x="142" y="-410"/>
      <point x="306" y="-178"/>
    </contour>
  </outline>
</glyph>
